<?xml version="1.0" standalone="no"?>
<!DOCTYPE svg PUBLIC "-//W3C//DTD SVG 20010904//EN"
 "http://www.w3.org/TR/2001/REC-SVG-20010904/DTD/svg10.dtd">
<svg version="1.0" xmlns="http://www.w3.org/2000/svg"
 width="500.000000pt" height="500.000000pt" viewBox="0 0 500.000000 500.000000"
 preserveAspectRatio="xMidYMid meet">
<metadata>
Created by potrace 1.14, written by Peter Selinger 2001-2017
</metadata>
<g transform="translate(0.000000,500.000000) scale(0.100000,-0.100000)"
fill="#000000" stroke="none">
<path d="M3622 4573 c-1 -12 -17 -38 -36 -57 l-34 -34 -224 -7 c-123 -4 -607
-6 -1076 -4 -469 3 -852 1 -852 -3 0 -3 15 -16 34 -27 27 -17 50 -21 125 -21
90 0 92 -1 89 -22 -2 -16 -29 -40 -85 -78 -308 -207 -487 -467 -538 -785 -15
-90 -21 -265 -9 -265 4 0 74 16 158 35 853 195 1816 190 2685 -16 68 -16 126
-27 129 -25 11 11 -19 296 -38 369 -31 116 -88 242 -158 343 -76 111 -226 258
-344 338 -129 87 -129 106 -1 106 68 0 92 4 118 20 40 25 68 79 62 123 -2 19
-4 23 -5 10z"/>
<path d="M1995 3064 c-47 -26 -65 -45 -93 -99 -23 -44 -27 -65 -30 -167 -3
-83 1 -140 12 -198 10 -45 16 -83 14 -84 -2 -1 -23 -8 -48 -15 -25 -7 -86 -32
-137 -56 -251 -118 -309 -299 -144 -447 57 -52 156 -105 256 -139 39 -13 72
-25 73 -26 2 -1 -4 -36 -13 -77 -13 -56 -16 -108 -13 -199 3 -109 7 -127 31
-175 89 -170 296 -147 531 58 l57 50 77 -65 c42 -36 114 -84 160 -107 188 -95
334 -47 379 124 17 69 17 195 -2 303 -9 48 -14 88 -13 89 2 1 35 12 73 25 158
53 284 140 324 224 65 135 -12 266 -214 363 -49 23 -112 48 -138 55 -48 12
-49 13 -43 43 36 175 33 336 -9 422 -40 82 -94 114 -191 114 -65 0 -80 -4
-160 -45 -49 -24 -123 -73 -164 -108 l-75 -63 -85 69 c-47 37 -119 85 -159
105 -63 31 -87 37 -150 40 -56 2 -84 -2 -106 -14z m208 -97 c52 -24 121 -73
191 -135 l37 -32 -86 -108 -87 -109 -111 -17 c-62 -9 -124 -19 -138 -22 -27
-6 -27 -5 -44 91 -31 172 -6 311 63 350 36 20 108 13 175 -18z m777 -2 c15
-14 32 -43 39 -64 25 -86 4 -356 -29 -356 -8 0 -70 9 -138 19 l-122 20 -81 99
c-44 54 -82 104 -85 111 -5 13 67 77 149 131 117 78 213 92 267 40z m-425
-302 l56 -68 -112 -3 c-61 -1 -114 -1 -116 2 -6 6 98 134 109 135 4 1 33 -29
63 -66z m37 -162 l87 -1 37 -57 c64 -101 144 -249 144 -268 0 -20 -88 -182
-148 -272 l-35 -53 -183 0 -183 0 -39 58 c-43 65 -75 120 -122 209 l-32 62 58
103 c31 57 75 129 96 160 l38 57 68 3 c37 2 81 3 97 2 17 -2 69 -3 117 -3z
m-429 -68 c-17 -26 -42 -70 -57 -96 -16 -29 -32 -45 -37 -40 -9 9 -61 155 -56
159 4 4 172 31 176 28 2 -2 -10 -25 -26 -51z m807 20 c5 -5 -38 -135 -52 -154
-5 -8 -11 -10 -14 -4 -2 6 -27 48 -54 94 -28 46 -50 87 -50 91 0 7 160 -18
170 -27z m-1031 -60 c7 -21 29 -78 49 -127 26 -67 33 -94 26 -111 -5 -12 -27
-70 -49 -129 -21 -58 -45 -106 -51 -106 -21 0 -163 57 -210 85 -191 112 -190
233 4 342 58 32 183 82 207 83 6 0 17 -17 24 -37z m1249 -4 c170 -68 259 -162
232 -245 -16 -46 -83 -110 -154 -146 -62 -31 -179 -78 -195 -78 -5 0 -15 17
-22 38 -6 20 -29 78 -49 129 l-38 92 22 48 c12 26 35 83 51 126 32 90 24 88
153 36z m-1053 -420 c43 -76 50 -95 37 -98 -22 -5 -162 20 -162 29 0 4 6 23
13 41 8 19 22 56 31 82 10 27 20 46 23 44 2 -3 28 -47 58 -98z m835 -60 c0
-17 -16 -22 -117 -35 -29 -4 -53 -3 -53 1 0 4 8 19 18 33 11 15 36 58 57 96
l38 69 29 -74 c15 -40 28 -81 28 -90z m-821 -125 c58 -8 106 -16 108 -18 2 -2
42 -50 88 -107 l84 -104 -51 -48 c-65 -62 -148 -115 -217 -138 -66 -23 -83
-24 -127 -3 -75 36 -102 169 -69 349 l17 97 32 -6 c17 -4 78 -14 135 -22z
m863 -9 c5 -16 12 -89 15 -161 5 -117 4 -135 -15 -177 -41 -92 -112 -107 -235
-48 -62 30 -217 146 -217 162 0 5 28 42 61 82 34 39 71 86 83 104 18 28 29 33
76 39 30 3 87 12 125 19 91 16 97 15 107 -20z m-448 -75 c-70 -90 -65 -89
-121 -25 -77 90 -80 85 52 85 l116 0 -47 -60z"/>
<path d="M2435 2345 c-22 -8 -54 -30 -72 -49 -125 -136 1 -336 182 -290 88 22
134 97 122 200 -12 107 -128 177 -232 139z"/>
<path d="M3845 1024 c-461 -92 -1113 -137 -1647 -115 -411 17 -747 49 -1062
102 -65 11 -120 19 -121 17 -2 -2 -5 -177 -6 -389 l-3 -386 27 -56 c43 -87
112 -138 234 -174 53 -16 158 -18 1208 -21 811 -2 1169 0 1215 8 131 22 220
82 267 178 l28 57 0 399 c0 258 -4 400 -10 402 -5 1 -64 -9 -130 -22z"/>
</g>
</svg>
